<svg id="Layer_1" data-name="Layer 1" xmlns="http://www.w3.org/2000/svg" viewBox="0 0 170.85 58.84"><defs><style>.cls-1{fill:#008fba;}.cls-1,.cls-2{fill-rule:evenodd;}.cls-2{fill:#fff;}</style></defs><path class="cls-1" d="M0,58.84H170.85V0H0Z"/><path class="cls-2" d="M60.76,58.84H170.85V0H60.76Z"/><path class="cls-1" d="M74.49,21.11,79.11,35.9l4.56-14.79h1.92L90.21,35.9l4.57-14.79h2l-5.65,17h-2L84.61,23.71,80,38.08h-2l-5.63-17Z"/><path class="cls-1" d="M109.39,33.74h-9.16l-1.87,4.34h-2l7.55-17h2l7.52,17h-2.09ZM108.62,32l-3.82-8.73L101,32Z"/><path class="cls-1" d="M125.66,21.11v1.8h-5.51V38.08h-1.92V22.91h-5.48v-1.8Z"/><path class="cls-1" d="M140.46,21.11v1.8H131v5.7h8.48v1.76H131v5.92h9.8v1.79H129.05v-17Z"/><path class="cls-1" d="M156.3,38.08l-3.53-5.43c-.34,0-.7.05-1.08.05h-4.48v5.38h-1.92v-17h6.4c4.2,0,6.63,2.09,6.63,5.7a5.3,5.3,0,0,1-3.8,5.48l4,5.79Zm-4.61-7.17c3.05,0,4.78-1.38,4.78-4.05s-1.73-3.95-4.78-3.95h-4.48v8Z"/><path class="cls-2" d="M0,58.84H58.84V0H0Z"/><path class="cls-1" d="M14.82,8.86V44.68H25v5.13H8.89V8.86Z"/><path class="cls-1" d="M27.21,8.86c5,0,7.82,3.14,7.82,8.77v3.68c0,4.09-1.19,6-4.33,6.83v.1C33.94,29.33,35,31,35,34.91v14.9H29v-16a2.88,2.88,0,0,0-3-3.09H25V43.77H19.09V8.86ZM25,25.7c3.19-.05,4.08-.55,4.08-2.19V16.28c0-1.39-1-2.19-2.69-2.19H25Z"/><path class="cls-1" d="M49.69,8.91v5.18H42.77V26.35h6.57l-2.71,5.08H42.77v13.3h7.17v5.08H36.79V8.91Z"/><path class="cls-1" d="M66.75,26.57c-1-1.48-6.06-9-6.11-9.08l-.76-1.12-.77,1.11c-.21.31-5.23,7.55-6.21,9a8.48,8.48,0,0,0-1.55,5.13,8.14,8.14,0,0,0,.21,1.55,8.28,8.28,0,0,0,7.54,6.54l.65,0h.08l.57,0A8.27,8.27,0,0,0,68,33.26a7.45,7.45,0,0,0,.23-1.54A8.49,8.49,0,0,0,66.75,26.57Z"/><path class="cls-2" d="M65.13,27.64c-1.45-2.21-5.27-7.75-5.27-7.75s-3.89,5.5-5.35,7.69a6.52,6.52,0,0,0-1.22,4,5.48,5.48,0,0,0,.16,1.18,6.34,6.34,0,0,0,5.81,5.05l.54,0,.46,0a6.32,6.32,0,0,0,5.87-5,6.11,6.11,0,0,0,.17-1.18A6.54,6.54,0,0,0,65.13,27.64Z"/></svg>