<svg width="171" height="72" viewBox="0 0 171 72" fill="none" xmlns="http://www.w3.org/2000/svg">
    <path fill-rule="evenodd" clip-rule="evenodd" d="M4.51085 64.9025C2.73667 64.9025 1.31019 66.2835 1.31019 68.0245C1.31019 69.7538 2.73667 71.1578 4.51085 71.1578C5.37572 71.1578 6.21764 70.7978 6.83541 70.2143L7.38578 70.8096C6.61076 71.5392 5.55544 71.9997 4.46592 71.9997C2.19753 71.9997 0.400879 70.2475 0.400879 68.0245C0.400879 65.8235 2.21999 64.0825 4.49962 64.0825C5.5779 64.0825 6.622 64.5206 7.37455 65.2282L6.83541 65.8797C6.22887 65.2731 5.37572 64.9025 4.51085 64.9025Z" fill="white"/>
    <path fill-rule="evenodd" clip-rule="evenodd" d="M9.24012 68.0357C9.24012 69.7757 10.7003 71.1797 12.452 71.1797C14.2037 71.1797 15.641 69.7757 15.641 68.0357C15.641 66.2952 14.2037 64.9137 12.452 64.9137C10.7003 64.9137 9.24012 66.2952 9.24012 68.0357ZM16.562 68.0357C16.562 70.2475 14.7429 71.9997 12.452 71.9997C10.1499 71.9997 8.33081 70.2475 8.33081 68.0357C8.33081 65.8235 10.1499 64.0825 12.452 64.0825C14.7429 64.0825 16.562 65.8235 16.562 68.0357Z" fill="white"/>
    <path fill-rule="evenodd" clip-rule="evenodd" d="M19.3939 64.105L24.1104 70.4946V64.105H24.9978V71.966H24.0767L19.3602 65.5871V71.966H18.4617V64.105H19.3939Z" fill="white"/>
    <path fill-rule="evenodd" clip-rule="evenodd" d="M28.5814 64.105L33.2979 70.4946V64.105H34.1853V71.966H33.2642L28.5482 65.5871V71.966H27.6497V64.105H28.5814Z" fill="white"/>
    <path fill-rule="evenodd" clip-rule="evenodd" d="M42.1719 64.105V64.9362H37.7362V67.5747H41.7002V68.3947H37.7362V71.1353H42.3179V71.966H36.8376V64.105H42.1719Z" fill="white"/>
    <path fill-rule="evenodd" clip-rule="evenodd" d="M47.7765 64.9025C46.0023 64.9025 44.5758 66.2835 44.5758 68.0245C44.5758 69.7538 46.0023 71.1578 47.7765 71.1578C48.6413 71.1578 49.4833 70.7978 50.101 70.2143L50.6514 70.8096C49.8764 71.5392 48.8211 71.9997 47.7315 71.9997C45.4632 71.9997 43.6665 70.2475 43.6665 68.0245C43.6665 65.8235 45.4856 64.0825 47.7652 64.0825C48.8435 64.0825 49.8876 64.5206 50.6397 65.2282L50.101 65.8797C49.495 65.2731 48.6413 64.9025 47.7765 64.9025Z" fill="white"/>
    <path fill-rule="evenodd" clip-rule="evenodd" d="M57.4921 64.105V64.9362H54.9199V71.966H54.0223V64.9362H51.4614V64.105H57.4921Z" fill="white"/>
    <path fill-rule="evenodd" clip-rule="evenodd" d="M59.0544 71.966H59.953V64.105H59.0544V71.966Z" fill="white"/>
    <path fill-rule="evenodd" clip-rule="evenodd" d="M63.5246 64.105L68.2411 70.4946V64.105H69.1284V71.966H68.2074L63.4913 65.5871V71.966H62.5928V64.105H63.5246Z" fill="white"/>
    <path fill-rule="evenodd" clip-rule="evenodd" d="M77.2602 68.1251H78.0577V70.9776C77.2826 71.5948 76.1931 71.9997 75.1373 71.9997C72.8577 71.9997 71.0391 70.2475 71.0391 68.0352C71.0391 65.823 72.8694 64.0825 75.1827 64.0825C76.2722 64.0825 77.3276 64.4976 78.0801 65.1608L77.5634 65.8118C76.9232 65.2389 76.0583 64.902 75.1827 64.902C73.3856 64.902 71.9484 66.2948 71.9484 68.0352C71.9484 69.787 73.3973 71.1797 75.194 71.1797C75.9016 71.1797 76.6537 70.9326 77.2602 70.5166V68.1251Z" fill="white"/>
    <path fill-rule="evenodd" clip-rule="evenodd" d="M84.0419 64.105L86.198 70.9551L88.3316 64.105H89.2301L91.3862 70.9551L93.5198 64.105H94.4516L91.813 71.966H90.892L88.7696 65.3068L86.6248 71.966H85.7037L83.0759 64.105H84.0419Z" fill="white"/>
    <path fill-rule="evenodd" clip-rule="evenodd" d="M99.9671 69.1252L98.1817 65.0827L96.4183 69.1252H99.9671ZM100.327 69.9559H96.0481L95.1725 71.966H94.2178L97.7437 64.1055H98.6755L102.191 71.966H101.214L100.327 69.9559Z" fill="white"/>
    <path fill-rule="evenodd" clip-rule="evenodd" d="M107.909 64.105V64.9362H105.336V71.966H104.439V64.9362H101.878V64.105H107.909Z" fill="white"/>
    <path fill-rule="evenodd" clip-rule="evenodd" d="M114.805 64.105V64.9362H110.369V67.5747H114.333V68.3947H110.369V71.1353H114.951V71.966H109.471V64.105H114.805Z" fill="white"/>
    <path fill-rule="evenodd" clip-rule="evenodd" d="M120.028 68.6418C121.454 68.6418 122.262 68.0015 122.262 66.7665C122.262 65.5647 121.454 64.9362 120.028 64.9362H117.939V68.6418H120.028ZM122.184 71.966L120.533 69.4505C120.376 69.4617 120.207 69.4729 120.028 69.4729H117.939V71.966H117.041V64.105H120.028C121.993 64.105 123.127 65.0709 123.127 66.744C123.127 68.0357 122.487 68.9226 121.353 69.282L123.206 71.966H122.184Z" fill="white"/>
    <path fill-rule="evenodd" clip-rule="evenodd" d="M134.087 64.105V64.9362H131.515V71.966H130.617V64.9362H128.056V64.105H134.087Z" fill="white"/>
    <path fill-rule="evenodd" clip-rule="evenodd" d="M135.311 68.0357C135.311 69.7757 136.771 71.1797 138.523 71.1797C140.275 71.1797 141.712 69.7757 141.712 68.0357C141.712 66.2952 140.275 64.9137 138.523 64.9137C136.771 64.9137 135.311 66.2952 135.311 68.0357ZM142.633 68.0357C142.633 70.2475 140.814 71.9997 138.523 71.9997C136.221 71.9997 134.402 70.2475 134.402 68.0357C134.402 65.8235 136.221 64.0825 138.523 64.0825C140.814 64.0825 142.633 65.8235 142.633 68.0357Z" fill="white"/>
    <path fill-rule="evenodd" clip-rule="evenodd" d="M149.447 64.105V71.1353H152.895V71.966H148.548V64.105H149.447Z" fill="white"/>
    <path fill-rule="evenodd" clip-rule="evenodd" d="M154.614 71.966H155.512V64.105H154.614V71.966Z" fill="white"/>
    <path fill-rule="evenodd" clip-rule="evenodd" d="M163.149 64.105V64.9362H159.05V67.7549H162.723V68.5744H159.05V71.966H158.152V64.105H163.149Z" fill="white"/>
    <path fill-rule="evenodd" clip-rule="evenodd" d="M170.068 64.105V64.9362H165.633V67.5747H169.597V68.3947H165.633V71.1353H170.214V71.966H164.734V64.105H170.068Z" fill="white"/>
    <path fill-rule="evenodd" clip-rule="evenodd" d="M0 58.8362H170.846V0H0V58.8362Z" fill="#008FB9"/>
    <path fill-rule="evenodd" clip-rule="evenodd" d="M60.7583 58.8362H170.846V0H60.7583V58.8362Z" fill="white"/>
    <path fill-rule="evenodd" clip-rule="evenodd" d="M74.4913 21.1147L79.1052 35.902L83.6723 21.1147H85.5944L90.2099 35.902L94.776 21.1147H96.7709L91.1231 38.0835H89.1521L84.6089 23.7084L80.0189 38.0835H78.0479L72.4241 21.1147H74.4913Z" fill="#008FB9"/>
    <path fill-rule="evenodd" clip-rule="evenodd" d="M109.388 33.7445H100.231L98.356 38.0835H96.3132L103.86 21.1147H105.855L113.377 38.0835H111.287L109.388 33.7445ZM108.619 31.9508L104.798 23.2239L101.024 31.9508H108.619Z" fill="#008FB9"/>
    <path fill-rule="evenodd" clip-rule="evenodd" d="M125.658 21.1147V22.9085H120.154V38.0835H118.232V22.9085H112.751V21.1147H125.658Z" fill="#008FB9"/>
    <path fill-rule="evenodd" clip-rule="evenodd" d="M140.462 21.1147V22.9085H130.97V28.6051H139.453V30.3739H130.97V36.2898H140.775V38.0835H129.046V21.1147H140.462Z" fill="#008FB9"/>
    <path fill-rule="evenodd" clip-rule="evenodd" d="M156.3 38.0835L152.766 32.6535C152.43 32.6779 152.069 32.7019 151.686 32.7019H147.215V38.0835H145.292V21.1143H151.686C155.891 21.1143 158.319 23.1995 158.319 26.8109C158.319 29.5989 156.948 31.5142 154.52 32.2902L158.487 38.0835H156.3ZM151.686 30.9082C154.737 30.9082 156.468 29.5266 156.468 26.8607C156.468 24.2666 154.737 22.909 151.686 22.909H147.215V30.9082H151.686Z" fill="#008FB9"/>
    <path fill-rule="evenodd" clip-rule="evenodd" d="M0 58.8362H58.8362V0H0V58.8362Z" fill="white"/>
    <path fill-rule="evenodd" clip-rule="evenodd" d="M14.8221 8.85938V44.681H24.9682V49.8116H8.89307V8.85938H14.8221Z" fill="#008FB9"/>
    <path fill-rule="evenodd" clip-rule="evenodd" d="M27.2099 8.85938C32.2419 8.85938 35.0323 11.998 35.0323 17.6272V21.3138C35.0323 25.3999 33.8369 27.343 30.6972 28.139V28.2401C33.936 29.335 34.9825 31.0296 34.9825 34.9149V49.8116H29.0036V33.7697C29.0036 31.9257 27.8081 30.6814 26.0144 30.6814H24.9689V43.7736H19.0891V8.85938H27.2099ZM24.9689 25.6978C28.1568 25.6489 29.0534 25.1508 29.0534 23.507V16.2828C29.0534 14.8871 28.0562 14.0906 26.3636 14.0906H24.9689V25.6978Z" fill="#008FB9"/>
    <path fill-rule="evenodd" clip-rule="evenodd" d="M49.694 8.90869V14.0901H42.7677V26.3458H49.3448L46.6286 31.4281H42.7677V44.7303H49.9421V49.8116H36.7903V8.90869H49.694Z" fill="#008FB9"/>
    <path fill-rule="evenodd" clip-rule="evenodd" d="M66.7507 26.5703C65.7808 25.0936 60.6873 17.5637 60.6361 17.4875L59.8791 16.3687L59.11 17.4797C58.897 17.7868 53.8812 25.0271 52.8962 26.4937C51.7979 28.1252 51.2783 29.8521 51.3486 31.6223C51.3686 32.1405 51.4409 32.663 51.5625 33.1724C52.44 36.8887 55.3267 39.393 59.0973 39.708C59.2911 39.7241 59.5729 39.7358 59.7541 39.7402L59.8132 39.7412H59.8322C60.0261 39.7378 60.2195 39.7304 60.4046 39.7163C64.1795 39.4423 67.094 36.9698 68.0116 33.2627C68.1386 32.7499 68.2158 32.2298 68.2421 31.718C68.3325 29.9468 67.8305 28.2151 66.7507 26.5703Z" fill="#008FB9"/>
    <path fill-rule="evenodd" clip-rule="evenodd" d="M65.1299 27.6354C63.6844 25.4349 59.8596 19.8936 59.8596 19.8936C59.8596 19.8936 55.9738 25.3914 54.5054 27.5758C53.6879 28.7913 53.2293 30.124 53.2874 31.5471C53.3016 31.9339 53.3543 32.327 53.45 32.726C54.1415 35.6551 56.3601 37.5333 59.2595 37.7755C59.4148 37.7887 59.6531 37.798 59.8045 37.8014C59.9554 37.8 60.1087 37.7926 60.264 37.7819C63.1653 37.5714 65.4059 35.7181 66.1286 32.7968C66.2273 32.3983 66.2849 32.0066 66.3049 31.6194C66.3772 30.1973 65.9338 28.8602 65.1299 27.6354Z" fill="white"/>
</svg>
