<?xml version="1.0" encoding="utf-8"?>
<!-- Generator: Adobe Illustrator 24.1.2, SVG Export Plug-In . SVG Version: 6.00 Build 0)  -->
<svg version="1.1" id="Layer_1" xmlns="http://www.w3.org/2000/svg" xmlns:xlink="http://www.w3.org/1999/xlink" x="0px" y="0px"
	 viewBox="0 0 58.5 58.8" style="enable-background:new 0 0 58.5 58.8;" xml:space="preserve">
<style type="text/css">
	.st0{fill-rule:evenodd;clip-rule:evenodd;fill:#FFFFFF;}
	.st1{fill-rule:evenodd;clip-rule:evenodd;fill:#101820;}
</style>
<path class="st0" d="M0,0v58.8"/>
<path class="st1" d="M0,58.8h58.8V0H0V58.8z"/>
<path class="st0" d="M14.8,8.9v35.8H25v5.1H8.9v-41H14.8z"/>
<path class="st0" d="M27.2,8.9c5,0,7.8,3.1,7.8,8.8v3.7c0,4.1-1.2,6-4.3,6.8v0.1c3.2,1.1,4.3,2.8,4.3,6.7v14.9h-6v-16
	c0-1.8-1.2-3.1-3-3.1h-1v13.1h-5.9V8.9H27.2z M25,25.7c3.2,0,4.1-0.5,4.1-2.2v-7.2c0-1.4-1-2.2-2.7-2.2H25V25.7z"/>
<path class="st0" d="M49.7,8.9v5.2h-6.9v12.3h6.6l-2.7,5.1h-3.9v13.3h7.2v5.1H36.8V8.9H49.7z"/>
</svg>
